<svg id="Layer_1" xmlns="http://www.w3.org/2000/svg" viewBox="0 0 116.7 25" width="116" height="25"><path fill="#ffffff" d="M22.5.4h4v24.2h-4zm-7.3 2.9C12.9 1.3 9.6.4 5.2.4H0v24.2h5.1c4.5 0 7.9-1 10.2-3.1 2.6-2.4 4-5.3 4-9 0-3.8-1.4-6.9-4.1-9.2zm-2.6 15.3c-1.5 1.4-4 2.2-7.4 2.2H4.1V4.2h1.1c3.4 0 5.8.7 7.3 2 1.8 1.6 2.7 3.7 2.7 6.3 0 2.5-.9 4.5-2.6 6.1zM113.1 3.7c-2.5-2.5-5.4-3.7-8.9-3.7s-6.5 1.2-8.9 3.7c-2.5 2.4-3.7 5.4-3.7 8.8 0 7 5.6 12.5 12.6 12.5s12.6-5.5 12.6-12.5c0-3.4-1.3-6.4-3.7-8.8zm-2.9 14.9c-1.7 1.7-3.7 2.5-6.1 2.5-4.8 0-8.6-3.9-8.6-8.7 0-2.4.9-4.5 2.5-6.2s3.7-2.5 6-2.5c2.5.1 4.5 1 6.2 2.7 1.7 1.6 2.5 3.7 2.5 6.1s-.8 4.5-2.5 6.1zm-33.4 6H90v-3.8h-9.2v-7.5h8.4V9.5h-8.5V4.2H90V.4H76.8zM74 11.7H63.2v3.8h6.7c-.2 1.5-1 2.8-2.3 3.9-1.5 1.2-3.2 1.8-5 1.8-2.2 0-4.1-.9-5.9-2.7-1.6-1.6-2.5-3.6-2.5-5.9 0-2.4.8-4.5 2.6-6.3 1.6-1.7 3.6-2.5 6-2.5 2.9 0 5.2 1.4 7.2 4l3-2.6C70.4 1.7 66.9 0 62.8 0c-7 0-12.6 5.6-12.6 12.6 0 6.8 5.6 12.4 12.4 12.4 1.7 0 3.4-.4 5-1.1 1.6-.7 2.9-1.7 4-3 1-1.2 1.7-2.5 2.1-4 .3-1.2.5-2.7.4-4.5l-.1-.7zM38.6.3L28 24.6h4.4l2.3-5.4c0-.1.1-.3.1-.3.1 0 .2.1.4.2 1.3.5 2.9.8 4.4.8s3-.3 3.9-.6c.5-.1.6-.2.7-.3 0 0 .1.2.1.3l2.2 5.3H51L40.6.3h-2zm4.2 15.3l-.4.1c-.8.2-1.8.4-2.8.4s-1.9-.1-2.8-.4c-.2-.1-.4-.2-.5-.2.1-.2.2-.4.2-.5l3.1-7.4 3 7.5c.1.1.2.3.2.5z"/></svg>